<svg width="615" height="334" viewBox="0 0 615 334" fill="none" xmlns="http://www.w3.org/2000/svg">
<path id="Vector 1" d="M316 40C299.553 23.5531 140 -32 165 57C161 59 237.2 115.8 186 131C122 150 129 125 27.9999 174C-73.0001 223 133 241 179 245C225 249 148 274 245 318C322.6 353.2 374 326 393 272C405 364 470 289 535 295C551.056 296.482 615 268.22 615 259C615 227 544.258 214.538 557 183C597 84 591.492 108.2 598 94C609 70 619 4 598 1C577 -2 532 16 501 57C470 98 362 46 355 47C348 48 333 57 316 40Z" fill="#B92222"/>
</svg>
